<svg enable-background="new 0 0 24 24" height="512" viewBox="0 0 24 24" width="512" xmlns="http://www.w3.org/2000/svg"><path d="m21.5 19h-10c-.276 0-.5-.224-.5-.5v-10c0-.276.224-.5.5-.5h10c.276 0 .5.224.5.5v10c0 .276-.224.5-.5.5zm-9.5-1h9v-9h-9z"/><path d="m18 13h-3c-.276 0-.5-.224-.5-.5v-4c0-.276.224-.5.5-.5h3c.276 0 .5.224.5.5v4c0 .276-.224.5-.5.5zm-2.5-1h2v-3h-2z"/><path d="m9.5 5h-3c-.276 0-.5-.224-.5-.5v-4c0-.276.224-.5.5-.5h3c.276 0 .5.224.5.5v4c0 .276-.224.5-.5.5zm-2.5-1h2v-3h-2z"/><path d="m23.5 24h-4c-.276 0-.5-.224-.5-.5v-1.5h-14v1.5c0 .276-.224.5-.5.5h-4c-.276 0-.5-.224-.5-.5v-5c0-.276.224-.5.5-.5h23c.276 0 .5.224.5.5v5c0 .276-.224.5-.5.5zm-3.5-1h3v-4h-22v4h3v-1.5c0-.276.224-.5.5-.5h15c.276 0 .5.224.5.5z"/><path d="m2.5 19c-.276 0-.5-.224-.5-.5v-18c0-.276.224-.5.5-.5h11c.276 0 .5.224.5.5v8c0 .276-.224.5-.5.5s-.5-.224-.5-.5v-7.5h-10v17.5c0 .276-.224.5-.5.5z"/></svg>